<?xml version="1.0" encoding="iso-8859-1"?>
<!-- Generator: Adobe Illustrator 19.0.0, SVG Export Plug-In . SVG Version: 6.00 Build 0)  -->
<svg version="1.1" id="Capa_1" xmlns="http://www.w3.org/2000/svg" xmlns:xlink="http://www.w3.org/1999/xlink" x="0px" y="0px"
	 viewBox="0 0 511.99 511.99" style="enable-background:new 0 0 511.99 511.99;" xml:space="preserve">
<g>
	<g>
		<path d="M495.065,106.765L366.469,78.636c-3.697-0.872-7.204-2.415-10.346-4.55l-3.147-2.134l6.214-9.161
			c4.086-6.019,5.612-13.415,4.243-20.56c-1.369-7.145-5.521-13.453-11.543-17.536L325.848,7.031
			c-14.103-9.568-33.29-5.919-42.896,8.158l-4.303,6.346l-15.143-10.271h-0.004c-9.951-6.724-23.467-4.132-30.225,5.796
			L197.515,69.79c-6.738,9.957-4.145,23.489,5.796,30.25l11.479,7.783c0.963,0.678,1.875,1.424,2.731,2.232
			c-4.754,28.946-18.604,78.763-58.968,115.226C107.519,271.377,32.585,399.248,2.706,452.144
			c-6.808,12.271-0.387,29.463,14.954,39.996c17.796,12.175,31.967,18.154,43.088,18.154c1.729,0.005,3.454-0.152,5.154-0.467
			c5.766-1.028,10.866-4.357,14.129-9.221c6.607-11.62,9.403-25.02,7.996-38.313c-1.642-17.936,2.807-35.903,12.629-51
			c21.385-26.692,44.17-52.232,68.258-76.512c47.704-50.662,101.775-108.079,118.671-140.262
			c5.639-10.655,10.555-20.344,14.933-29.09c18.465,5.305,21.282,18.217,25.109,45.423c0.921,6.542,1.896,13.467,3.283,20.671
			c5.771,30.008,31.283,49.808,45.979,58.938c4.093,2.574,8.827,3.947,13.662,3.962c3.104-0.002,6.18-0.577,9.075-1.696
			c14.862-5.725,44.35-22.042,74.858-67.017c19.808-28.655,32.63-61.552,37.438-96.054
			C512.766,118.899,505.588,109.152,495.065,106.765z M297.077,24.769c4.308-6.289,12.892-7.905,19.191-3.613l26.042,17.663
			c2.275,1.541,3.844,3.923,4.361,6.622c0.517,2.699-0.061,5.493-1.607,7.765l-6.215,9.163l-46.078-31.254L297.077,24.769z
			 M272.49,186.561c-15.825,30.137-71.371,89.125-116,136.521c-24.767,24.885-48.123,51.135-69.958,78.629
			c-11.764,17.933-17.241,39.264-15.571,60.646c1.247,9.848-0.515,19.843-5.054,28.671c-0.712,1.113-1.878,1.857-3.188,2.033
			c-3.158,0.596-12.967,0.35-35.408-14.996c-8.308-5.704-11.771-13.875-9.712-17.583c22.971-40.658,101.838-176.871,152.396-222.533
			c31.093-29.43,52.478-67.638,61.302-109.532l2.302,3.248c12.036,16.937,30.554,28.128,51.146,30.908l0.102,0.014
			C281.131,169.958,277.062,177.922,272.49,186.561z M352.116,240.91c-2.034-3.989-3.529-8.23-4.447-12.612
			c-1.329-6.908-2.258-13.55-3.142-19.821c-3.846-27.354-7.484-53.192-42.12-60.762l-15.404-2.058
			c-15.895-2.146-30.189-10.784-39.48-23.858l-12.542-17.7c-0.399-0.565-0.91-1.026-1.335-1.568
			c-0.258-0.356-0.543-0.692-0.854-1.003c-2.429-2.99-5.264-5.625-8.423-7.829l-11.475-7.784c-1.034-0.701-1.748-1.784-1.983-3.011
			c-0.235-1.227,0.027-2.497,0.729-3.531l35.758-52.729c1.458-2.148,4.379-2.709,6.529-1.254h-0.004l22.026,14.94
			c0.063,0.045,0.093,0.117,0.157,0.16s0.142,0.045,0.207,0.087l59.832,40.583c0.065,0.046,0.094,0.119,0.16,0.164
			c0.086,0.058,0.185,0.076,0.272,0.13l9.957,6.753c4.901,3.324,10.371,5.721,16.138,7.071l70.329,15.383
			C429.225,133.035,413.768,183.98,352.116,240.91z M460.361,216.127c-27.896,41.129-53.867,55.667-66.867,60.675
			c-2.522,0.94-5.339,0.629-7.596-0.837c-9.05-5.646-17.22-12.595-24.244-20.623c65.491-59.61,83.358-113.439,88.059-141.026
			l41.56,9.091c2.269,0.524,3.813,2.628,3.633,4.95C490.257,159.871,478.439,189.898,460.361,216.127z"/>
	</g>
</g>
<g>
</g>
<g>
</g>
<g>
</g>
<g>
</g>
<g>
</g>
<g>
</g>
<g>
</g>
<g>
</g>
<g>
</g>
<g>
</g>
<g>
</g>
<g>
</g>
<g>
</g>
<g>
</g>
<g>
</g>
</svg>
