<svg height="479pt" viewBox="1 0 479.99829 479" width="479pt" xmlns="http://www.w3.org/2000/svg"><path d="m459.054688 69.347656-62.59375-62.59375c-6.109376-6.109375-15.296876-7.933594-23.277344-4.628906-7.980469 3.304688-13.183594 11.09375-13.183594 19.734375v63.046875l-69.320312 61.601562c-.058594.054688-.082032.144532-.144532.199219-.066406.054688-.136718.074219-.191406.128907l-288 288c-3.125 3.125-3.125 8.1875 0 11.3125l32 32c3.121094 3.121093 8.1875 3.121093 11.308594 0l288-288c.058594-.058594.074218-.136719.128906-.191407.058594-.058593.144531-.089843.199219-.144531l59.722656-67.199219 72.640625 72.628907c2.285156 2.285156 5.722656 2.972656 8.707031 1.738281 2.988281-1.234375 4.941407-4.144531 4.949219-7.375v-69.699219c.003906-18.964844-7.53125-37.152344-20.945312-50.558594zm-80.097657-52.28125c2.066407-1.03125 4.558594-.628906 6.191407 1l15.648437 15.671875c-9.632813.039063-18.742187 4.410157-24.796875 11.90625v-23.785156c-.007812-2.03125 1.140625-3.886719 2.957031-4.792969zm-338.957031 444.121094-20.691406-20.6875 276.691406-276.6875 20.6875 20.6875zm287.652344-288.34375-20-20 65.664062-58.359375c1.046875-.9375 1.828125-2.128906 2.273438-3.457031l10.152344-30.457032c2.300781-6.890624 8.949218-11.367187 16.199218-10.902343l15.808594 1.007812 3.367188 3.359375-8 1.425782c-6.917969 1.226562-12.613282 6.136718-14.847657 12.796874l-13.375 40.128907zm136.347656-2.550781-62.121094-62.121094 11.605469-34.832031c.378906-1.121094 1.347656-1.945313 2.515625-2.136719l18.949219-3.375 12.800781 12.800781c10.414062 10.417969 16.257812 24.546875 16.25 39.277344zm0 0"/></svg>