<svg id="Layer_2" height="512" viewBox="0 0 128 128" width="512" xmlns="http://www.w3.org/2000/svg" data-name="Layer 2"><path d="m127.97 78.99a92.068 92.068 0 0 0 -18.05-39.51l1.24-1.24a1.762 1.762 0 0 0 0-2.48l-3.65-3.64 5.23-5.23a1.75 1.75 0 0 0 0-2.47l-9.16-9.16a1.75 1.75 0 0 0 -2.47 0l-5.23 5.23-3.64-3.65a1.762 1.762 0 0 0 -2.48 0l-1.24 1.24a91.968 91.968 0 0 0 -39.51-18.05 1.756 1.756 0 0 0 -1.57 2.96l28.09 28.08-.78.79a1.743 1.743 0 0 0 -.51 1.4l.77 8.1-74.5 74.5a1.75 1.75 0 0 0 0 2.47l9.16 9.16a1.75 1.75 0 0 0 2.47 0l74.5-74.5 8.1.77a1.743 1.743 0 0 0 1.4-.51l.79-.78 28.08 28.09a1.791 1.791 0 0 0 1.24.51 1.725 1.725 0 0 0 .82-.21 1.745 1.745 0 0 0 .9-1.87zm-25.62-60.02 6.68 6.68-3.99 3.99-6.68-6.68zm-91.44 104.8-6.68-6.68 72.6-72.6 6.68 6.68zm87.25-75.01a1.732 1.732 0 0 0 -2.47 0l-1.44 1.44-7.47-.71-8.27-8.27-.7-7.47 1.43-1.44a1.732 1.732 0 0 0 0-2.47l-25.04-25.04a88.463 88.463 0 0 1 33.34 16.98 1.761 1.761 0 0 0 2.35-.11l1.11-1.12 16.45 16.45-1.12 1.11a1.761 1.761 0 0 0 -.11 2.35 88.885 88.885 0 0 1 16.99 33.34z"/><path d="m86.556 29.813a1.749 1.749 0 0 0 0 2.475l9.157 9.157a1.75 1.75 0 0 0 2.475-2.475l-9.158-9.157a1.749 1.749 0 0 0 -2.474 0z"/></svg>